<mxfile host="app.diagrams.net" agent="Mozilla/5.0 (Windows NT 10.0; Win64; x64) AppleWebKit/537.36 (KHTML, like Gecko) Chrome/135.0.0.0 Safari/537.36" version="26.2.14">
  <diagram id="C5RBs43oDa-KdzZeNtuy" name="Page-1">
    <mxGraphModel dx="1155" dy="575" grid="1" gridSize="10" guides="1" tooltips="1" connect="1" arrows="1" fold="1" page="1" pageScale="1" pageWidth="827" pageHeight="1169" math="0" shadow="0">
      <root>
        <mxCell id="WIyWlLk6GJQsqaUBKTNV-0" />
        <mxCell id="WIyWlLk6GJQsqaUBKTNV-1" parent="WIyWlLk6GJQsqaUBKTNV-0" />
        <mxCell id="JdAZ2cySLwuWak4YsMem-2" style="edgeStyle=orthogonalEdgeStyle;rounded=0;orthogonalLoop=1;jettySize=auto;html=1;" edge="1" parent="WIyWlLk6GJQsqaUBKTNV-1" source="o1jFse1Ho-8cPkj3V7hL-0" target="JdAZ2cySLwuWak4YsMem-1">
          <mxGeometry relative="1" as="geometry" />
        </mxCell>
        <mxCell id="o1jFse1Ho-8cPkj3V7hL-0" value="Start" style="ellipse;whiteSpace=wrap;html=1;" parent="WIyWlLk6GJQsqaUBKTNV-1" vertex="1">
          <mxGeometry x="220" y="20" width="70" height="40" as="geometry" />
        </mxCell>
        <mxCell id="o1jFse1Ho-8cPkj3V7hL-12" style="edgeStyle=orthogonalEdgeStyle;rounded=0;orthogonalLoop=1;jettySize=auto;html=1;" parent="WIyWlLk6GJQsqaUBKTNV-1" source="o1jFse1Ho-8cPkj3V7hL-1" target="o1jFse1Ho-8cPkj3V7hL-14" edge="1">
          <mxGeometry relative="1" as="geometry">
            <mxPoint x="140" y="300" as="targetPoint" />
          </mxGeometry>
        </mxCell>
        <mxCell id="JdAZ2cySLwuWak4YsMem-4" style="edgeStyle=orthogonalEdgeStyle;rounded=0;orthogonalLoop=1;jettySize=auto;html=1;" edge="1" parent="WIyWlLk6GJQsqaUBKTNV-1" source="o1jFse1Ho-8cPkj3V7hL-1" target="JdAZ2cySLwuWak4YsMem-5">
          <mxGeometry relative="1" as="geometry">
            <mxPoint x="255" y="380" as="targetPoint" />
          </mxGeometry>
        </mxCell>
        <mxCell id="o1jFse1Ho-8cPkj3V7hL-1" value="if" style="rhombus;whiteSpace=wrap;html=1;" parent="WIyWlLk6GJQsqaUBKTNV-1" vertex="1">
          <mxGeometry x="225" y="270" width="60" height="60" as="geometry" />
        </mxCell>
        <mxCell id="o1jFse1Ho-8cPkj3V7hL-22" style="edgeStyle=orthogonalEdgeStyle;rounded=0;orthogonalLoop=1;jettySize=auto;html=1;entryX=0.5;entryY=0;entryDx=0;entryDy=0;" parent="WIyWlLk6GJQsqaUBKTNV-1" source="o1jFse1Ho-8cPkj3V7hL-2" target="o1jFse1Ho-8cPkj3V7hL-1" edge="1">
          <mxGeometry relative="1" as="geometry" />
        </mxCell>
        <mxCell id="o1jFse1Ho-8cPkj3V7hL-2" value="show option" style="shape=parallelogram;perimeter=parallelogramPerimeter;whiteSpace=wrap;html=1;fixedSize=1;" parent="WIyWlLk6GJQsqaUBKTNV-1" vertex="1">
          <mxGeometry x="195" y="160" width="120" height="60" as="geometry" />
        </mxCell>
        <mxCell id="o1jFse1Ho-8cPkj3V7hL-6" value="" style="endArrow=classic;html=1;rounded=0;exitX=1;exitY=0.5;exitDx=0;exitDy=0;" parent="WIyWlLk6GJQsqaUBKTNV-1" source="o1jFse1Ho-8cPkj3V7hL-1" target="o1jFse1Ho-8cPkj3V7hL-16" edge="1">
          <mxGeometry width="50" height="50" relative="1" as="geometry">
            <mxPoint x="285" y="300" as="sourcePoint" />
            <mxPoint x="360" y="300" as="targetPoint" />
          </mxGeometry>
        </mxCell>
        <mxCell id="o1jFse1Ho-8cPkj3V7hL-7" value="1. login" style="text;html=1;align=center;verticalAlign=middle;whiteSpace=wrap;rounded=0;" parent="WIyWlLk6GJQsqaUBKTNV-1" vertex="1">
          <mxGeometry x="285" y="270" width="60" height="30" as="geometry" />
        </mxCell>
        <mxCell id="o1jFse1Ho-8cPkj3V7hL-8" value="2. register" style="text;html=1;align=center;verticalAlign=middle;whiteSpace=wrap;rounded=0;" parent="WIyWlLk6GJQsqaUBKTNV-1" vertex="1">
          <mxGeometry x="260" y="330" width="60" height="30" as="geometry" />
        </mxCell>
        <mxCell id="o1jFse1Ho-8cPkj3V7hL-10" value="3. exit programme" style="text;html=1;align=center;verticalAlign=middle;whiteSpace=wrap;rounded=0;" parent="WIyWlLk6GJQsqaUBKTNV-1" vertex="1">
          <mxGeometry x="155" y="260" width="60" height="30" as="geometry" />
        </mxCell>
        <mxCell id="o1jFse1Ho-8cPkj3V7hL-14" value="End" style="ellipse;whiteSpace=wrap;html=1;" parent="WIyWlLk6GJQsqaUBKTNV-1" vertex="1">
          <mxGeometry x="70" y="270" width="70" height="60" as="geometry" />
        </mxCell>
        <mxCell id="JdAZ2cySLwuWak4YsMem-14" style="edgeStyle=orthogonalEdgeStyle;rounded=0;orthogonalLoop=1;jettySize=auto;html=1;entryX=0;entryY=0.5;entryDx=0;entryDy=0;" edge="1" parent="WIyWlLk6GJQsqaUBKTNV-1" source="o1jFse1Ho-8cPkj3V7hL-16" target="o1jFse1Ho-8cPkj3V7hL-17">
          <mxGeometry relative="1" as="geometry" />
        </mxCell>
        <mxCell id="o1jFse1Ho-8cPkj3V7hL-16" value="verify user" style="rounded=0;whiteSpace=wrap;html=1;" parent="WIyWlLk6GJQsqaUBKTNV-1" vertex="1">
          <mxGeometry x="520" y="280" width="80" height="40" as="geometry" />
        </mxCell>
        <mxCell id="o1jFse1Ho-8cPkj3V7hL-19" style="edgeStyle=orthogonalEdgeStyle;rounded=0;orthogonalLoop=1;jettySize=auto;html=1;exitX=0.5;exitY=0;exitDx=0;exitDy=0;entryX=1;entryY=0.5;entryDx=0;entryDy=0;" parent="WIyWlLk6GJQsqaUBKTNV-1" source="o1jFse1Ho-8cPkj3V7hL-17" edge="1" target="o1jFse1Ho-8cPkj3V7hL-2">
          <mxGeometry relative="1" as="geometry">
            <mxPoint x="260" y="240" as="targetPoint" />
            <Array as="points">
              <mxPoint x="685" y="190" />
            </Array>
            <mxPoint x="710" y="210" as="sourcePoint" />
          </mxGeometry>
        </mxCell>
        <mxCell id="o1jFse1Ho-8cPkj3V7hL-23" value="Flase" style="edgeLabel;html=1;align=center;verticalAlign=middle;resizable=0;points=[];" parent="o1jFse1Ho-8cPkj3V7hL-19" vertex="1" connectable="0">
          <mxGeometry x="-0.4828" relative="1" as="geometry">
            <mxPoint x="46" y="40" as="offset" />
          </mxGeometry>
        </mxCell>
        <mxCell id="o1jFse1Ho-8cPkj3V7hL-25" value="" style="edgeStyle=orthogonalEdgeStyle;rounded=0;orthogonalLoop=1;jettySize=auto;html=1;entryX=0.5;entryY=0;entryDx=0;entryDy=0;" parent="WIyWlLk6GJQsqaUBKTNV-1" source="o1jFse1Ho-8cPkj3V7hL-17" target="JdAZ2cySLwuWak4YsMem-16" edge="1">
          <mxGeometry relative="1" as="geometry">
            <mxPoint x="685" y="500" as="targetPoint" />
            <Array as="points">
              <mxPoint x="685" y="400" />
              <mxPoint x="473" y="400" />
            </Array>
          </mxGeometry>
        </mxCell>
        <mxCell id="o1jFse1Ho-8cPkj3V7hL-27" value="True" style="edgeLabel;html=1;align=center;verticalAlign=middle;resizable=0;points=[];" parent="o1jFse1Ho-8cPkj3V7hL-25" vertex="1" connectable="0">
          <mxGeometry x="-0.2333" y="2" relative="1" as="geometry">
            <mxPoint x="67" y="-32" as="offset" />
          </mxGeometry>
        </mxCell>
        <mxCell id="o1jFse1Ho-8cPkj3V7hL-17" value="Verify user&amp;nbsp;" style="rhombus;whiteSpace=wrap;html=1;" parent="WIyWlLk6GJQsqaUBKTNV-1" vertex="1">
          <mxGeometry x="650" y="260" width="70" height="80" as="geometry" />
        </mxCell>
        <mxCell id="JdAZ2cySLwuWak4YsMem-3" style="edgeStyle=orthogonalEdgeStyle;rounded=0;orthogonalLoop=1;jettySize=auto;html=1;entryX=0.5;entryY=0;entryDx=0;entryDy=0;" edge="1" parent="WIyWlLk6GJQsqaUBKTNV-1" source="JdAZ2cySLwuWak4YsMem-1" target="o1jFse1Ho-8cPkj3V7hL-2">
          <mxGeometry relative="1" as="geometry" />
        </mxCell>
        <mxCell id="JdAZ2cySLwuWak4YsMem-1" value="Run main.py,&amp;nbsp;&lt;div&gt;show first page&lt;/div&gt;" style="rounded=0;whiteSpace=wrap;html=1;" vertex="1" parent="WIyWlLk6GJQsqaUBKTNV-1">
          <mxGeometry x="197.5" y="90" width="117.5" height="40" as="geometry" />
        </mxCell>
        <mxCell id="JdAZ2cySLwuWak4YsMem-10" style="edgeStyle=orthogonalEdgeStyle;rounded=0;orthogonalLoop=1;jettySize=auto;html=1;entryX=0.5;entryY=0;entryDx=0;entryDy=0;" edge="1" parent="WIyWlLk6GJQsqaUBKTNV-1" source="JdAZ2cySLwuWak4YsMem-5" target="JdAZ2cySLwuWak4YsMem-9">
          <mxGeometry relative="1" as="geometry" />
        </mxCell>
        <mxCell id="JdAZ2cySLwuWak4YsMem-5" value="Enter user name&amp;nbsp;&lt;div&gt;and IC number&amp;nbsp;&lt;/div&gt;&lt;div&gt;(12 digits)&lt;/div&gt;" style="shape=parallelogram;perimeter=parallelogramPerimeter;whiteSpace=wrap;html=1;fixedSize=1;" vertex="1" parent="WIyWlLk6GJQsqaUBKTNV-1">
          <mxGeometry x="180" y="380" width="150" height="70" as="geometry" />
        </mxCell>
        <mxCell id="JdAZ2cySLwuWak4YsMem-7" value="Enter user name&lt;br&gt;and password" style="shape=parallelogram;perimeter=parallelogramPerimeter;whiteSpace=wrap;html=1;fixedSize=1;" vertex="1" parent="WIyWlLk6GJQsqaUBKTNV-1">
          <mxGeometry x="345" y="270" width="125" height="60" as="geometry" />
        </mxCell>
        <mxCell id="JdAZ2cySLwuWak4YsMem-12" style="edgeStyle=orthogonalEdgeStyle;rounded=0;orthogonalLoop=1;jettySize=auto;html=1;entryX=0;entryY=0.5;entryDx=0;entryDy=0;" edge="1" parent="WIyWlLk6GJQsqaUBKTNV-1" source="JdAZ2cySLwuWak4YsMem-8" target="o1jFse1Ho-8cPkj3V7hL-2">
          <mxGeometry relative="1" as="geometry">
            <mxPoint x="20" y="190" as="targetPoint" />
            <Array as="points">
              <mxPoint x="50" y="610" />
              <mxPoint x="50" y="190" />
            </Array>
          </mxGeometry>
        </mxCell>
        <mxCell id="JdAZ2cySLwuWak4YsMem-13" value="False&lt;div&gt;&lt;br&gt;&lt;/div&gt;" style="edgeLabel;html=1;align=center;verticalAlign=middle;resizable=0;points=[];" vertex="1" connectable="0" parent="JdAZ2cySLwuWak4YsMem-12">
          <mxGeometry x="-0.8919" y="5" relative="1" as="geometry">
            <mxPoint as="offset" />
          </mxGeometry>
        </mxCell>
        <mxCell id="JdAZ2cySLwuWak4YsMem-15" style="edgeStyle=orthogonalEdgeStyle;rounded=0;orthogonalLoop=1;jettySize=auto;html=1;entryX=0;entryY=0.5;entryDx=0;entryDy=0;" edge="1" parent="WIyWlLk6GJQsqaUBKTNV-1" source="JdAZ2cySLwuWak4YsMem-8" target="JdAZ2cySLwuWak4YsMem-16">
          <mxGeometry relative="1" as="geometry">
            <mxPoint x="520" y="610" as="targetPoint" />
          </mxGeometry>
        </mxCell>
        <mxCell id="JdAZ2cySLwuWak4YsMem-8" value="Register Success" style="rhombus;whiteSpace=wrap;html=1;" vertex="1" parent="WIyWlLk6GJQsqaUBKTNV-1">
          <mxGeometry x="215" y="570" width="80" height="80" as="geometry" />
        </mxCell>
        <mxCell id="JdAZ2cySLwuWak4YsMem-11" style="edgeStyle=orthogonalEdgeStyle;rounded=0;orthogonalLoop=1;jettySize=auto;html=1;entryX=0.5;entryY=0;entryDx=0;entryDy=0;" edge="1" parent="WIyWlLk6GJQsqaUBKTNV-1" source="JdAZ2cySLwuWak4YsMem-9" target="JdAZ2cySLwuWak4YsMem-8">
          <mxGeometry relative="1" as="geometry" />
        </mxCell>
        <mxCell id="JdAZ2cySLwuWak4YsMem-9" value="Save user data" style="rounded=0;whiteSpace=wrap;html=1;" vertex="1" parent="WIyWlLk6GJQsqaUBKTNV-1">
          <mxGeometry x="195" y="480" width="120" height="40" as="geometry" />
        </mxCell>
        <mxCell id="JdAZ2cySLwuWak4YsMem-20" value="" style="edgeStyle=orthogonalEdgeStyle;rounded=0;orthogonalLoop=1;jettySize=auto;html=1;" edge="1" parent="WIyWlLk6GJQsqaUBKTNV-1" source="JdAZ2cySLwuWak4YsMem-16" target="JdAZ2cySLwuWak4YsMem-19">
          <mxGeometry relative="1" as="geometry" />
        </mxCell>
        <mxCell id="JdAZ2cySLwuWak4YsMem-16" value="show&amp;nbsp;&lt;div&gt;second page&lt;/div&gt;" style="rounded=0;whiteSpace=wrap;html=1;" vertex="1" parent="WIyWlLk6GJQsqaUBKTNV-1">
          <mxGeometry x="425" y="460" width="95" height="50" as="geometry" />
        </mxCell>
        <mxCell id="JdAZ2cySLwuWak4YsMem-22" style="edgeStyle=orthogonalEdgeStyle;rounded=0;orthogonalLoop=1;jettySize=auto;html=1;" edge="1" parent="WIyWlLk6GJQsqaUBKTNV-1" source="JdAZ2cySLwuWak4YsMem-19" target="JdAZ2cySLwuWak4YsMem-21">
          <mxGeometry relative="1" as="geometry" />
        </mxCell>
        <mxCell id="JdAZ2cySLwuWak4YsMem-19" value="Show option" style="shape=parallelogram;perimeter=parallelogramPerimeter;whiteSpace=wrap;html=1;fixedSize=1;rounded=0;" vertex="1" parent="WIyWlLk6GJQsqaUBKTNV-1">
          <mxGeometry x="412.5" y="587.5" width="120" height="45" as="geometry" />
        </mxCell>
        <mxCell id="JdAZ2cySLwuWak4YsMem-23" style="edgeStyle=orthogonalEdgeStyle;rounded=0;orthogonalLoop=1;jettySize=auto;html=1;entryX=0;entryY=0;entryDx=0;entryDy=0;" edge="1" parent="WIyWlLk6GJQsqaUBKTNV-1" source="JdAZ2cySLwuWak4YsMem-21" target="o1jFse1Ho-8cPkj3V7hL-2">
          <mxGeometry relative="1" as="geometry">
            <mxPoint x="285" y="720" as="targetPoint" />
            <Array as="points">
              <mxPoint x="10" y="720" />
              <mxPoint x="10" y="169" />
            </Array>
          </mxGeometry>
        </mxCell>
        <mxCell id="JdAZ2cySLwuWak4YsMem-24" style="edgeStyle=orthogonalEdgeStyle;rounded=0;orthogonalLoop=1;jettySize=auto;html=1;" edge="1" parent="WIyWlLk6GJQsqaUBKTNV-1" source="JdAZ2cySLwuWak4YsMem-21">
          <mxGeometry relative="1" as="geometry">
            <mxPoint x="640" y="720" as="targetPoint" />
          </mxGeometry>
        </mxCell>
        <mxCell id="JdAZ2cySLwuWak4YsMem-25" style="edgeStyle=orthogonalEdgeStyle;rounded=0;orthogonalLoop=1;jettySize=auto;html=1;entryX=0.5;entryY=0;entryDx=0;entryDy=0;" edge="1" parent="WIyWlLk6GJQsqaUBKTNV-1" source="JdAZ2cySLwuWak4YsMem-21" target="JdAZ2cySLwuWak4YsMem-36">
          <mxGeometry relative="1" as="geometry">
            <mxPoint x="330" y="780" as="targetPoint" />
            <Array as="points" />
          </mxGeometry>
        </mxCell>
        <mxCell id="JdAZ2cySLwuWak4YsMem-21" value="if" style="rhombus;whiteSpace=wrap;html=1;" vertex="1" parent="WIyWlLk6GJQsqaUBKTNV-1">
          <mxGeometry x="442.5" y="690" width="60" height="60" as="geometry" />
        </mxCell>
        <mxCell id="JdAZ2cySLwuWak4YsMem-28" value="3. logout back to first page" style="text;html=1;align=center;verticalAlign=middle;resizable=0;points=[];autosize=1;strokeColor=none;fillColor=none;" vertex="1" parent="WIyWlLk6GJQsqaUBKTNV-1">
          <mxGeometry x="295" y="690" width="160" height="30" as="geometry" />
        </mxCell>
        <mxCell id="JdAZ2cySLwuWak4YsMem-29" value="1. view tax records" style="text;html=1;align=center;verticalAlign=middle;resizable=0;points=[];autosize=1;strokeColor=none;fillColor=none;" vertex="1" parent="WIyWlLk6GJQsqaUBKTNV-1">
          <mxGeometry x="502.5" y="690" width="120" height="30" as="geometry" />
        </mxCell>
        <mxCell id="JdAZ2cySLwuWak4YsMem-33" style="edgeStyle=orthogonalEdgeStyle;rounded=0;orthogonalLoop=1;jettySize=auto;html=1;" edge="1" parent="WIyWlLk6GJQsqaUBKTNV-1" source="JdAZ2cySLwuWak4YsMem-32" target="JdAZ2cySLwuWak4YsMem-34">
          <mxGeometry relative="1" as="geometry">
            <mxPoint x="685" y="780" as="targetPoint" />
          </mxGeometry>
        </mxCell>
        <mxCell id="JdAZ2cySLwuWak4YsMem-32" value="read csv file" style="rounded=0;whiteSpace=wrap;html=1;" vertex="1" parent="WIyWlLk6GJQsqaUBKTNV-1">
          <mxGeometry x="640" y="700" width="90" height="40" as="geometry" />
        </mxCell>
        <mxCell id="JdAZ2cySLwuWak4YsMem-42" style="edgeStyle=orthogonalEdgeStyle;rounded=0;orthogonalLoop=1;jettySize=auto;html=1;" edge="1" parent="WIyWlLk6GJQsqaUBKTNV-1" source="JdAZ2cySLwuWak4YsMem-34">
          <mxGeometry relative="1" as="geometry">
            <mxPoint x="810" y="820" as="targetPoint" />
          </mxGeometry>
        </mxCell>
        <mxCell id="JdAZ2cySLwuWak4YsMem-34" value="Show data frame" style="shape=parallelogram;perimeter=parallelogramPerimeter;whiteSpace=wrap;html=1;fixedSize=1;" vertex="1" parent="WIyWlLk6GJQsqaUBKTNV-1">
          <mxGeometry x="625" y="790" width="120" height="60" as="geometry" />
        </mxCell>
        <mxCell id="JdAZ2cySLwuWak4YsMem-40" style="edgeStyle=orthogonalEdgeStyle;rounded=0;orthogonalLoop=1;jettySize=auto;html=1;entryX=0.5;entryY=0;entryDx=0;entryDy=0;" edge="1" parent="WIyWlLk6GJQsqaUBKTNV-1" source="JdAZ2cySLwuWak4YsMem-35" target="JdAZ2cySLwuWak4YsMem-39">
          <mxGeometry relative="1" as="geometry" />
        </mxCell>
        <mxCell id="JdAZ2cySLwuWak4YsMem-35" value="Calculate tax" style="rounded=0;whiteSpace=wrap;html=1;" vertex="1" parent="WIyWlLk6GJQsqaUBKTNV-1">
          <mxGeometry x="412.5" y="910" width="120" height="60" as="geometry" />
        </mxCell>
        <mxCell id="JdAZ2cySLwuWak4YsMem-38" style="edgeStyle=orthogonalEdgeStyle;rounded=0;orthogonalLoop=1;jettySize=auto;html=1;" edge="1" parent="WIyWlLk6GJQsqaUBKTNV-1" source="JdAZ2cySLwuWak4YsMem-36" target="JdAZ2cySLwuWak4YsMem-35">
          <mxGeometry relative="1" as="geometry" />
        </mxCell>
        <mxCell id="JdAZ2cySLwuWak4YsMem-36" value="Require user to enter&amp;nbsp;&lt;div&gt;thier income details&lt;/div&gt;" style="shape=parallelogram;perimeter=parallelogramPerimeter;whiteSpace=wrap;html=1;fixedSize=1;" vertex="1" parent="WIyWlLk6GJQsqaUBKTNV-1">
          <mxGeometry x="391" y="810" width="163" height="60" as="geometry" />
        </mxCell>
        <mxCell id="JdAZ2cySLwuWak4YsMem-41" style="edgeStyle=orthogonalEdgeStyle;rounded=0;orthogonalLoop=1;jettySize=auto;html=1;entryX=1;entryY=0.5;entryDx=0;entryDy=0;" edge="1" parent="WIyWlLk6GJQsqaUBKTNV-1" source="JdAZ2cySLwuWak4YsMem-39" target="JdAZ2cySLwuWak4YsMem-19">
          <mxGeometry relative="1" as="geometry">
            <Array as="points">
              <mxPoint x="810" y="1050" />
              <mxPoint x="810" y="610" />
            </Array>
          </mxGeometry>
        </mxCell>
        <mxCell id="JdAZ2cySLwuWak4YsMem-39" value="save data" style="rounded=0;whiteSpace=wrap;html=1;" vertex="1" parent="WIyWlLk6GJQsqaUBKTNV-1">
          <mxGeometry x="413" y="1020" width="120" height="60" as="geometry" />
        </mxCell>
      </root>
    </mxGraphModel>
  </diagram>
</mxfile>
